<?xml version="1.0" encoding="utf-8"?>
<svg version="1.1" id="Layer_1" xmlns="http://www.w3.org/2000/svg" xmlns:xlink="http://www.w3.org/1999/xlink" x="0px" y="0px"
     viewBox="0 0 529.04 49.97" style="enable-background:new 0 0 529.04 49.97;" xml:space="preserve">
    <style type="text/css">
        .st0{fill:#FFFFFF;}
    </style>
    <g>
        <path class="st0" d="M156.86,35.66l-3.74-10.49c-0.53-1.56-0.46-2.56-1.52-2.56s-1.22,1.08-1.69,2.63l-3.58,10.43H156.86z
             M139.46,46.47l7.7-22.99c1-2.74,2.44-4.69,6.33-4.69c4.59,0,5.35,2.69,6.57,5.95l7.87,21.72h-7.25l-2.9-8.17H145.4l-2.74,8.17
            H139.46z"/>
        <path class="st0" d="M201.2,26.11c-2.22-2.63-4.28-5.3-8.4-5.3c-7.4,0-9.17,7.11-9.17,12.36c0,5.05,2.15,11.99,9.48,11.99
            c2.51,0,5.79-2.26,5.79-5.87v-6.18h6.33v13.33h-6.33V44.9c-1.99,1.27-5.05,2.26-7.71,2.26c-10.24,0-15.58-6.44-15.58-13.86
            c0-8.5,5.81-14.5,16.26-14.5c5.41,0,9.46,2.39,12.14,5.76L201.2,26.11z"/>
    </g>
    <polygon class="st0" points="218.01,19.43 218.01,46.47 224.88,46.47 224.88,33.98 225.04,33.98 237.25,46.47 246.19,46.47
        231.53,31.1 242.76,19.49 238.25,19.49 225.04,33.36 224.88,33.36 224.88,19.43 "/>
    <g>
        <path class="st0" d="M270.58,35.66l-3.75-10.49c-0.52-1.56-0.47-2.56-1.51-2.56c-1.07,0-1.24,1.08-1.69,2.63l-3.59,10.43H270.58z
             M253.17,46.47l7.7-22.99c1-2.74,2.44-4.69,6.35-4.69c4.58,0,5.33,2.69,6.56,5.95l7.87,21.72h-7.25l-2.91-8.17h-12.36l-2.75,8.17
            H253.17z"/>
        <path class="st0" d="M314.92,26.11c-2.23-2.63-4.3-5.3-8.42-5.3c-7.4,0-9.17,7.11-9.17,12.36c0,5.05,2.14,11.99,9.49,11.99
            c2.51,0,5.79-2.26,5.79-5.87v-6.18h6.34v13.33h-6.34V44.9c-1.99,1.27-5.03,2.26-7.7,2.26c-10.24,0-15.58-6.44-15.58-13.86
            c0-8.5,5.8-14.5,16.26-14.5c5.42,0,9.48,2.39,12.14,5.76L314.92,26.11z"/>
        <path class="st0" d="M353.03,21.48h-13.06c-0.99,0-1.68,0.26-1.68,1.25v8.51h12.14v2.61H338.3v8.76c0,1.23,0.91,1.87,2.57,1.87
            h13.07v1.99h-17.25c-3.29,0-5.27-1.24-5.27-4.75V25.04c0-2.68,0.45-5.55,5.97-5.55h15.65V21.48z"/>
    </g>
    <polygon class="st0" points="365.41,19.43 365.41,46.47 372.28,46.47 372.28,33.86 384.74,33.86 384.74,46.47 391.59,46.47
        391.59,19.49 384.74,19.49 384.74,31.25 372.28,31.25 372.28,19.43 "/>
    <g>
        <path class="st0" d="M411.69,19.49v19.23c0,4.32,3.89,5.44,6.72,5.44c4.41,0,7.18-2.63,7.18-7.43V19.49h3.19v18.81
            c0,6-5.32,8.86-11.45,8.86c-4.41,0-12.52-0.99-12.52-9.11V19.49H411.69z"/>
        <path class="st0" d="M440.24,44.04c2.21,0.25,4.58,0.44,6.72,0.44c3.36,0,7.17-0.75,7.17-4.12c0-5.68-14.74-5.56-14.74-13.19
            c0-6.06,6.49-7.68,11.39-7.68c3.05,0,5.65,0.25,7.49,0.45v1.86c-1.46-0.13-2.75-0.31-4.29-0.31c-3.43,0-8.16-0.11-8.16,3.75
            c0,5.12,15.18,4.88,15.18,13.6c0,5.32-5.26,7.63-11.38,7.63c-3.42,0-6.33-0.05-9.38-0.7V44.04z"/>
        <path class="st0" d="M492.83,21.48h-13.06c-0.99,0-1.68,0.26-1.68,1.25v8.51h12.15v2.61H478.1v8.76c0,1.23,0.91,1.87,2.6,1.87
            h13.05v1.99h-17.26c-3.27,0-5.26-1.24-5.26-4.75V25.04c0-2.68,0.46-5.55,5.96-5.55h15.65V21.48z"/>
    </g>
    <polygon class="st0" points="502.19,19.49 502.19,21.48 510.59,21.48 510.59,46.47 517.46,46.47 517.46,21.48 525.86,21.48
        525.86,19.49 "/>
    <path class="st0" d="M117.09,42.61v-23.1h-6.86v22.21c0,3.51,1.99,4.75,5.27,4.75h17.27v-1.99H119.7
        C118.02,44.48,117.09,43.84,117.09,42.61"/>
    <g>
        <path class="st0" d="M19.42,17.32l0.11,0.02l8.39,0l0.1-0.02c0.2-0.04,4.97-1.08,5.51-5.56c0.29-2.45-0.94-3.54-1.71-3.98
            c-0.58-0.33-1.28-0.51-2.01-0.51c-0.35,0-0.7,0.04-1.03,0.12l-0.06,0.02l-0.07-0.04c-0.62-0.56-1.4-0.84-2.29-0.84
            c-0.84,0.01-1.79,0.33-2.55,0.84l-0.07,0.05l-0.1-0.03c-0.8-0.54-1.74-0.85-2.61-0.86c-0.86,0-1.63,0.29-2.23,0.83L18.76,7.4
            l-0.08,0c-1.09-0.27-2.2-0.11-3.06,0.38c-0.76,0.44-2,1.53-1.71,3.98C14.45,16.24,19.22,17.28,19.42,17.32z M29.77,9.74l0-0.19
            l0.19,0.01c0.3,0.02,0.57,0.1,0.78,0.23c0.17,0.11,0.68,0.43,0.52,1.69c-0.28,2.31-2.45,3.22-3.38,3.5l-0.48,0.15l0.29-0.41
            C29.08,12.78,29.8,11.05,29.77,9.74z M24.87,9.45l0.04-0.04c0.39-0.33,1.06-0.64,1.63-0.59c0.27,0.02,0.62,0.12,0.9,0.71
            c0.35,0.74-0.91,3-2.27,4.74l-0.3,0.39V9.45z M20,9.54c0.28-0.59,0.62-0.69,0.9-0.71c0.55-0.05,1.24,0.26,1.62,0.57l0.05,0.04
            l0.02,0.07v5.15l-0.3-0.39C20.91,12.53,19.65,10.28,20,9.54z M16.71,9.8c0.21-0.13,0.48-0.21,0.78-0.23l0.18-0.01l0,0.18
            c-0.02,1.31,0.7,3.04,2.08,4.99l0.29,0.41l-0.48-0.15c-0.92-0.28-3.1-1.19-3.38-3.5C16.03,10.22,16.54,9.9,16.71,9.8z"/>
        <rect x="22.53" y="2.87" class="st0" width="2.4" height="2.4"/>
        <rect x="22.53" y="2.87" class="st0" width="2.4" height="2.4"/>
        <path class="st0" d="M24.92,5.27h-2.4v-2.4h2.4V5.27z"/>
        <path class="st0" d="M40.46,25.27c-3.6-3.64-9.53-5.65-16.7-5.67h-0.08c-7.17,0.01-13.1,2.03-16.7,5.67
            c-2.54,2.57-3.85,5.94-3.81,9.75c0.08,6.64,5.64,12.08,12.4,12.14l0.37,0c1.19,0,2.35-0.05,3.45-0.16
            c-0.77-0.39-1.44-0.81-1.99-1.27c-0.4-0.33-0.8-0.69-1.21-1.07c-0.11-0.1-0.24-0.16-0.39-0.16l-0.2,0
            c-5.32-0.05-9.7-4.31-9.76-9.51c-0.04-3.13,0.99-5.77,3.04-7.84c1.82-1.84,4.52-3.25,7.79-4.06l1.21-0.3l-0.64,1.07
            c-0.48,0.82-0.73,1.69-0.74,2.59c-0.02,3.08,1.99,5.16,5.97,6.19l0.35,0.09c0.21,0.05,0.49,0.12,0.82,0.21l0.21,0.06
            c3.09,0.86,4.92,2.07,5.46,3.59c0.46,1.3,0.26,2.56-0.58,3.73c-0.43,0.61-1.03,1.17-1.77,1.66c1.3,0.2,2.54,0.29,3.37,0.33l0.03,0
            c0.12,0,0.24-0.06,0.32-0.17c0.07-0.09,0.14-0.19,0.21-0.28c1.34-1.87,1.66-4.06,0.92-6.17c-1.33-3.78-6.24-5.02-8.11-5.49l0,0
            l-0.57-0.14c-2.87-0.74-3.99-1.75-3.98-3.59c0.01-0.8,0.43-1.57,1.27-2.31c0.05-0.04,1.27-0.99,3.12-0.99
            c1.41,0,2.44,0.43,2.94,0.69l0.3,0.18c0.06,0.03,0.11,0.07,0.16,0.11c0.86,0.74,1.3,1.52,1.31,2.32c0.01,1.1-0.42,1.91-1.35,2.54
            c0.82,0.29,1.51,0.6,1.96,0.81c0.17,0.08,0.36,0.11,0.55,0.09c0.29-0.04,0.57-0.23,0.75-0.52c0.51-0.84,0.76-1.82,0.76-2.93
            c-0.01-0.91-0.25-1.78-0.73-2.59l-0.64-1.07l1.21,0.3c3.28,0.81,5.97,2.22,7.79,4.06c2.05,2.08,3.08,4.72,3.04,7.84
            c-0.06,5.2-4.44,9.46-9.76,9.51c-0.74,0.01-1.49-0.01-2.21-0.04l-0.6-0.03c-1.1-0.09-3.25-0.33-5.37-0.96
            c-2.3-0.73-4.02-1.81-4.97-3.15c-0.84-1.18-1.04-2.43-0.58-3.73c0.34-0.95,1.19-1.79,2.53-2.48c-0.93-0.4-1.76-0.81-2.48-1.23
            c-0.18-0.1-0.4-0.09-0.55,0.03c-0.97,0.8-1.64,1.74-2.01,2.79c-0.74,2.11-0.41,4.3,0.92,6.17c0.51,0.71,1.17,1.38,1.98,1.99
            l0.1,0.09c0.05,0.04,0.1,0.08,0.14,0.12c1.39,1.15,3.46,1.84,4.94,2.22l0.14,0.03c2.15,0.56,4.73,0.85,7.66,0.85l0.37,0
            c6.76-0.06,12.32-5.5,12.4-12.14C44.32,31.21,43,27.83,40.46,25.27z"/>
    </g>
</svg>
